<svg width="123" height="40" viewBox="0 0 123 40" fill="none" xmlns="http://www.w3.org/2000/svg">
<path d="M63.2115 18.0354L61.1547 15.1214C61.0684 15.1309 60.939 15.1356 60.7664 15.1356H58.4938V18.0354H56.6239V8.08511H60.7664C61.639 8.08511 62.3965 8.22725 63.0389 8.51155C63.691 8.79584 64.1896 9.20333 64.5348 9.73402C64.88 10.2647 65.0526 10.8949 65.0526 11.6246C65.0526 12.3732 64.8656 13.0176 64.4917 13.5578C64.1273 14.0979 63.5999 14.5007 62.9095 14.766L65.2252 18.0354H63.2115ZM63.1684 11.6246C63.1684 10.9897 62.9574 10.5016 62.5355 10.1605C62.1136 9.81931 61.4951 9.64873 60.6801 9.64873H58.4938V13.6146H60.6801C61.4951 13.6146 62.1136 13.4441 62.5355 13.1029C62.9574 12.7523 63.1684 12.2595 63.1684 11.6246Z" fill="white"/>
<path d="M69.836 10.3595C70.9675 10.3595 71.8305 10.6295 72.425 11.1697C73.0291 11.7004 73.3312 12.5059 73.3312 13.5862V18.0354H71.6339V17.1115C71.4134 17.4431 71.097 17.699 70.6846 17.8791C70.2819 18.0496 69.7929 18.1349 69.2175 18.1349C68.6422 18.1349 68.1388 18.0402 67.7073 17.8506C67.2758 17.6516 66.9401 17.3816 66.7004 17.0404C66.4703 16.6898 66.3552 16.2965 66.3552 15.8606C66.3552 15.1783 66.6093 14.6334 67.1175 14.2259C67.6353 13.8089 68.4456 13.6004 69.5483 13.6004H71.5333V13.4867C71.5333 12.956 71.3702 12.5485 71.0442 12.2642C70.7278 11.9799 70.2531 11.8378 69.6203 11.8378C69.1888 11.8378 68.762 11.9041 68.3401 12.0368C67.9278 12.1695 67.5778 12.3543 67.2901 12.5912L66.5854 11.2976C66.9881 10.9944 67.4723 10.7622 68.0381 10.6011C68.6038 10.44 69.2031 10.3595 69.836 10.3595ZM69.5915 16.8414C70.0422 16.8414 70.4401 16.7419 70.7853 16.5429C71.1401 16.3344 71.3894 16.0406 71.5333 15.6616V14.7803H69.6778C68.6422 14.7803 68.1244 15.1167 68.1244 15.7895C68.1244 16.1117 68.2538 16.3676 68.5127 16.5571C68.7716 16.7466 69.1312 16.8414 69.5915 16.8414Z" fill="white"/>
<path d="M81.6365 16.614V18.0354H75.0057V16.9125L79.2201 11.8662H75.092V10.4448H81.5214V11.5677L77.2927 16.614H81.6365Z" fill="white"/>
<path d="M89.2917 16.614V18.0354H82.661V16.9125L86.8753 11.8662H82.7473V10.4448H89.1767V11.5677L84.9479 16.614H89.2917Z" fill="white"/>
<path d="M94.2887 18.1349C93.512 18.1349 92.812 17.9691 92.1888 17.6374C91.5655 17.3057 91.0764 16.8461 90.7216 16.2586C90.3764 15.6616 90.2038 14.9887 90.2038 14.2401C90.2038 13.4914 90.3764 12.8234 90.7216 12.2358C91.0764 11.6483 91.5655 11.1887 92.1888 10.857C92.812 10.5253 93.512 10.3595 94.2887 10.3595C95.075 10.3595 95.7798 10.5253 96.4031 10.857C97.0264 11.1887 97.5106 11.6483 97.8558 12.2358C98.2106 12.8234 98.388 13.4914 98.388 14.2401C98.388 14.9887 98.2106 15.6616 97.8558 16.2586C97.5106 16.8461 97.0264 17.3057 96.4031 17.6374C95.7798 17.9691 95.075 18.1349 94.2887 18.1349ZM94.2887 16.614C94.9504 16.614 95.4969 16.396 95.9284 15.9601C96.3599 15.5242 96.5757 14.9508 96.5757 14.2401C96.5757 13.5294 96.3599 12.956 95.9284 12.5201C95.4969 12.0842 94.9504 11.8662 94.2887 11.8662C93.6271 11.8662 93.0805 12.0842 92.649 12.5201C92.2271 12.956 92.0161 13.5294 92.0161 14.2401C92.0161 14.9508 92.2271 15.5242 92.649 15.9601C93.0805 16.396 93.6271 16.614 94.2887 16.614Z" fill="white"/>
<path d="M103.559 18.1349C102.783 18.1349 102.083 17.9691 101.459 17.6374C100.836 17.3057 100.347 16.8461 99.9922 16.2586C99.647 15.6616 99.4744 14.9887 99.4744 14.2401C99.4744 13.4914 99.647 12.8234 99.9922 12.2358C100.347 11.6483 100.836 11.1887 101.459 10.857C102.083 10.5253 102.783 10.3595 103.559 10.3595C104.346 10.3595 105.05 10.5253 105.674 10.857C106.297 11.1887 106.781 11.6483 107.126 12.2358C107.481 12.8234 107.659 13.4914 107.659 14.2401C107.659 14.9887 107.481 15.6616 107.126 16.2586C106.781 16.8461 106.297 17.3057 105.674 17.6374C105.05 17.9691 104.346 18.1349 103.559 18.1349ZM103.559 16.614C104.221 16.614 104.768 16.396 105.199 15.9601C105.631 15.5242 105.846 14.9508 105.846 14.2401C105.846 13.5294 105.631 12.956 105.199 12.5201C104.768 12.0842 104.221 11.8662 103.559 11.8662C102.898 11.8662 102.351 12.0842 101.92 12.5201C101.498 12.956 101.287 13.5294 101.287 14.2401C101.287 14.9508 101.498 15.5242 101.92 15.9601C102.351 16.396 102.898 16.614 103.559 16.614Z" fill="white"/>
<path d="M119.072 10.3595C120.041 10.3595 120.808 10.639 121.374 11.1981C121.939 11.7478 122.222 12.577 122.222 13.6857V18.0354H120.424V13.9132C120.424 13.2498 120.276 12.7523 119.978 12.4206C119.681 12.0795 119.254 11.9089 118.698 11.9089C118.094 11.9089 117.61 12.1079 117.246 12.5059C116.881 12.8944 116.699 13.4535 116.699 14.1832V18.0354H114.901V13.9132C114.901 13.2498 114.752 12.7523 114.455 12.4206C114.158 12.0795 113.731 11.9089 113.175 11.9089C112.561 11.9089 112.072 12.1031 111.708 12.4917C111.353 12.8802 111.176 13.4441 111.176 14.1832V18.0354H109.378V10.4448H111.089V11.4114C111.377 11.0702 111.737 10.8096 112.168 10.6295C112.6 10.4495 113.079 10.3595 113.607 10.3595C114.182 10.3595 114.69 10.4684 115.131 10.6864C115.582 10.8949 115.937 11.2076 116.196 11.6246C116.512 11.2266 116.92 10.9186 117.418 10.7006C117.917 10.4732 118.468 10.3595 119.072 10.3595Z" fill="white"/>
<path d="M64.5348 32.081L64.523 25.0868L61.0612 30.995H60.7658L57.3041 25.1101V32.081H56.7133V23.9075H57.2214L60.9194 30.2244L64.6175 23.9075H65.1138L65.1256 32.081H64.5348Z" fill="white"/>
<path d="M73.0304 29.1735H67.7255C67.7413 29.6484 67.8633 30.0726 68.0918 30.4463C68.3202 30.8121 68.6274 31.0962 69.0133 31.2986C69.4072 31.501 69.8483 31.6022 70.3366 31.6022C70.7383 31.6022 71.1085 31.5322 71.4472 31.392C71.7938 31.2441 72.0813 31.0301 72.3097 30.7498L72.6523 31.1352C72.3845 31.4543 72.0458 31.6995 71.6363 31.8708C71.2346 32.042 70.7974 32.1277 70.3248 32.1277C69.7104 32.1277 69.163 31.9953 68.6825 31.7307C68.202 31.466 67.824 31.1001 67.5483 30.6331C67.2805 30.166 67.1466 29.6328 67.1466 29.0334C67.1466 28.4418 67.2726 27.9125 67.5247 27.4454C67.7846 26.9706 68.139 26.6008 68.588 26.3362C69.037 26.0715 69.5411 25.9392 70.1003 25.9392C70.6596 25.9392 71.1597 26.0715 71.6008 26.3362C72.0498 26.593 72.4003 26.955 72.6523 27.4221C72.9123 27.8891 73.0422 28.4185 73.0422 29.0101L73.0304 29.1735ZM70.1003 26.4529C69.6671 26.4529 69.2772 26.5502 68.9306 26.7448C68.5841 26.9317 68.3044 27.2002 68.0918 27.5505C67.887 27.893 67.7688 28.2822 67.7373 28.7181H72.4633C72.4397 28.2822 72.3215 27.893 72.1089 27.5505C71.8962 27.208 71.6166 26.9394 71.27 26.7448C70.9234 26.5502 70.5335 26.4529 70.1003 26.4529Z" fill="white"/>
<path d="M80.3519 23.4171V32.081H79.773V30.6448C79.5288 31.1196 79.1862 31.4855 78.7451 31.7423C78.304 31.9992 77.8038 32.1277 77.2446 32.1277C76.6696 32.1277 76.1497 31.9953 75.685 31.7307C75.2203 31.466 74.854 31.1001 74.5862 30.6331C74.3263 30.166 74.1963 29.6328 74.1963 29.0334C74.1963 28.434 74.3263 27.9008 74.5862 27.4337C74.854 26.9589 75.2203 26.593 75.685 26.3362C76.1497 26.0715 76.6696 25.9392 77.2446 25.9392C77.7959 25.9392 78.2882 26.0676 78.7215 26.3245C79.1625 26.5814 79.5091 26.9394 79.7612 27.3987V23.4171H80.3519ZM77.28 31.6022C77.7526 31.6022 78.174 31.4932 78.5442 31.2753C78.9223 31.0573 79.2177 30.7537 79.4303 30.3645C79.6509 29.9753 79.7612 29.5316 79.7612 29.0334C79.7612 28.5352 79.6509 28.0915 79.4303 27.7023C79.2177 27.3131 78.9223 27.0095 78.5442 26.7915C78.174 26.5736 77.7526 26.4646 77.28 26.4646C76.8074 26.4646 76.3821 26.5736 76.004 26.7915C75.6338 27.0095 75.3384 27.3131 75.1179 27.7023C74.9052 28.0915 74.7989 28.5352 74.7989 29.0334C74.7989 29.5316 74.9052 29.9753 75.1179 30.3645C75.3384 30.7537 75.6338 31.0573 76.004 31.2753C76.3821 31.4932 76.8074 31.6022 77.28 31.6022Z" fill="white"/>
<path d="M82.8425 25.9859H83.4333V32.081H82.8425V25.9859ZM83.1379 24.503C83.004 24.503 82.8898 24.4602 82.7953 24.3745C82.7008 24.2811 82.6535 24.1682 82.6535 24.0359C82.6535 23.9036 82.7008 23.7907 82.7953 23.6973C82.8898 23.6039 83.004 23.5572 83.1379 23.5572C83.2718 23.5572 83.386 23.6039 83.4806 23.6973C83.5751 23.7829 83.6223 23.8919 83.6223 24.0242C83.6223 24.1566 83.5751 24.2694 83.4806 24.3629C83.386 24.4563 83.2718 24.503 83.1379 24.503Z" fill="white"/>
<path d="M88.0026 25.9392C88.7667 25.9392 89.3535 26.1338 89.7631 26.523C90.1727 26.9044 90.3774 27.4688 90.3774 28.2161V32.081H89.8103V30.995C89.6134 31.3531 89.3259 31.6334 88.9478 31.8358C88.5698 32.0304 88.1169 32.1277 87.5891 32.1277C86.9039 32.1277 86.3604 31.9681 85.9587 31.6489C85.5648 31.3298 85.3679 30.9094 85.3679 30.3879C85.3679 29.8819 85.5491 29.4732 85.9114 29.1619C86.2816 28.8427 86.8684 28.6831 87.6718 28.6831H89.7867V28.1927C89.7867 27.6245 89.6292 27.1924 89.3141 26.8966C89.0069 26.6008 88.554 26.4529 87.9554 26.4529C87.5458 26.4529 87.152 26.523 86.7739 26.6631C86.4037 26.8032 86.0886 26.99 85.8287 27.2236L85.5333 26.8032C85.8405 26.5308 86.2107 26.3206 86.6439 26.1727C87.0771 26.017 87.53 25.9392 88.0026 25.9392ZM87.6718 31.6489C88.1838 31.6489 88.617 31.5322 88.9715 31.2986C89.3338 31.0651 89.6055 30.7265 89.7867 30.2828V29.1385H87.6836C87.0771 29.1385 86.636 29.2475 86.3604 29.4654C86.0926 29.6834 85.9587 29.9831 85.9587 30.3645C85.9587 30.7615 86.1083 31.0768 86.4076 31.3103C86.7069 31.5361 87.1283 31.6489 87.6718 31.6489Z" fill="white"/>
<path fill-rule="evenodd" clip-rule="evenodd" d="M1.67674 18.7964C2.33311 19.2589 3.98311 20.2741 5.62948 21.4881C5.84344 21.6471 6.06102 21.806 6.27497 21.9614C6.29311 21.5459 6.31124 21.1557 6.333 20.7908C5.56421 20.2597 4.78454 19.7033 4.1064 19.1938C2.9786 18.3412 2.07927 17.5933 1.6985 17.1308C1.54982 16.9538 1.51355 16.7984 1.50267 16.719C1.42289 17.3548 1.38663 18.0521 1.27784 18.7278C1.37212 18.7097 1.53168 18.6953 1.67674 18.7964ZM10.1008 24.812C10.8768 25.4262 11.4135 25.9321 11.5477 26.0621C11.8342 25.7297 11.9394 25.3865 11.7435 25.036C11.4824 24.5664 10.924 23.8221 10.3619 23.0561C10.2966 23.1501 9.95211 23.2151 8.28036 22.1095C8.0809 21.9795 7.8742 21.8422 7.66025 21.6976C7.59135 22.0084 7.51156 22.3913 7.42453 22.8068C8.42541 23.5367 9.36827 24.234 10.1008 24.812ZM8.17519 9.09918C8.17519 9.09918 8.08453 9.55803 7.9975 10.2409C8.33475 10.8117 9.11442 13.507 9.82882 16.1915C10.0682 16.1806 10.3329 16.1264 10.6266 16.018C10.6701 16.0036 10.7136 15.9855 10.7572 15.9711C10.6991 15.7326 10.1334 13.3264 9.84695 11.4259C9.69464 10.4143 9.87233 8.97272 9.87233 8.97272C9.87233 8.97272 9.86508 8.95466 9.85057 8.92214C8.93673 8.38381 8.43266 8.26096 8.17519 9.09918ZM11.2794 22.1565C11.3301 22.8032 10.8515 22.2288 10.7753 22.1348C11.5042 23.0959 12.4434 23.8365 13.5277 23.739C13.7163 23.7209 13.9049 23.6992 14.0862 23.6667C14.0281 23.6089 13.7054 23.2946 13.3246 22.8683C13.0998 22.619 12.8206 22.4239 12.6392 22.012C11.9938 20.5234 11.3882 18.4026 11.0436 17.1164C10.7209 17.2898 10.4417 17.4705 10.2096 17.6619C10.7934 19.9164 11.2576 21.8711 11.2794 22.1565ZM25.832 4.60101C25.832 4.60101 25.7159 4.73108 25.5165 4.96231C25.618 5.16103 25.4621 5.49342 25.3859 5.86917C25.3352 6.11485 25.4041 6.46892 25.2771 6.86635C24.9399 7.92134 24.1131 9.56887 22.7242 12.452C22.2818 13.3697 21.872 14.3091 21.4114 15.1834C20.7333 16.4733 20.0769 17.633 19.5439 18.399C19.2501 18.8217 18.9818 19.1216 18.8367 19.2769C19.0761 20.191 19.678 20.1549 21.357 19.2336C21.386 19.2191 21.4151 19.2011 21.4404 19.1866C21.4477 19.0674 21.484 18.6519 21.5601 18.1208C21.6109 17.7776 21.6181 17.3765 21.7886 16.9935C22.0606 16.3829 22.2673 15.5736 22.6154 14.7535C23.1049 13.5937 23.7613 12.3762 24.327 11.2995C25.3787 9.29428 26.4013 7.65398 26.6407 7.27101C26.7277 6.66764 26.8038 6.17266 26.8292 5.76801C26.9235 4.27946 26.5826 4.0952 25.832 4.60101ZM17.1541 23.3668C17.2411 23.4716 17.3535 23.6089 17.5022 23.7896C18.4487 24.9529 17.582 30.2207 17.5348 30.5133C17.5022 30.7157 17.4369 30.7662 17.4007 30.7807C17.7742 31.0517 18.1876 31.2504 18.63 31.3046C18.6336 31.2901 18.6336 31.2793 18.6264 31.2648C18.5502 31.1456 18.5357 31.1673 18.5321 31.1853C18.5321 31.1095 18.5357 30.8024 18.6083 30.4122C18.8113 29.2885 18.8766 27.0376 19.1413 25.6792C19.2682 25.036 19.6345 24.6495 19.7179 24.57C18.7859 23.8076 17.9156 23.2693 17.1541 23.3668ZM32.2216 18.7784C32.1745 19.1071 31.917 19.6599 31.5798 20.4223C31.3586 20.9245 31.1664 21.5351 30.753 22.1673C29.8609 23.5367 30.6478 22.6587 26.5573 22.5503C26.1583 22.5395 25.9843 22.4925 25.9154 22.4672C25.8755 22.8285 25.8356 23.1826 25.7993 23.5114C25.8138 23.4969 25.89 23.4138 26.0278 23.421C26.3288 23.4319 26.9598 23.5728 28.1383 23.7101C29.6034 23.8799 31.5907 23.963 33.1282 24.2412C34.6658 24.5194 35.6123 25.0071 35.7392 25.0758C35.8371 24.5194 35.7972 23.8438 35.5724 22.9839C35.5361 22.9983 35.3403 23.0634 35.043 23.1103C34.3938 23.2079 33.2552 23.3054 32.5335 23.2332C32.1527 23.1934 31.917 22.8899 31.8372 22.7815C31.6886 22.5756 31.7974 21.5062 32.2289 20.6246C32.6822 19.6961 33.4619 18.9518 33.4619 18.9518L33.4655 18.9409C33.1065 18.7314 32.6749 18.6013 32.1201 18.4785C32.1165 18.4785 32.1129 18.4785 32.1129 18.4749C32.1636 18.5327 32.2398 18.6375 32.2216 18.7784ZM24.9653 22.3444C24.9653 22.3444 24.6063 22.2179 24.1167 22.2179C23.5546 22.2179 23.2826 21.9722 22.9055 21.7085C22.4848 21.4122 22.1585 20.8992 21.9917 20.5487C21.9191 20.3934 21.8865 20.2777 21.872 20.2163C20.9726 20.91 20.0878 21.7988 20.193 22.5648C20.2437 22.9261 20.494 23.2982 20.8348 23.6812C20.8784 23.6631 20.9255 23.6342 20.9654 23.5981C21.0669 23.5005 23.9136 23.291 24.4104 23.2548C24.9073 23.2187 24.8238 23.4427 24.8238 23.4427H24.8347C24.8964 23.067 24.9471 22.6984 24.987 22.3444H24.9653ZM30.2308 2.49103C29.7412 2.96433 30.0603 3.62912 30.0603 3.62912C30.0603 3.62912 30.1945 4.04461 30.4157 4.71663C30.4411 4.67327 30.4991 4.6263 30.6369 4.6805C30.7385 4.72024 32.189 5.7391 34.4011 6.86274C36.5733 7.9647 38.7056 9.40989 38.7491 9.49299C38.847 9.33041 38.9304 9.1895 38.9921 9.08473C39.1371 8.84627 39.2532 8.66923 39.3402 8.51749C39.2822 8.55723 39.177 8.62226 39.1081 8.59697C39.0791 8.58613 38.216 7.9936 37.0302 7.25656C36.1236 6.68932 35.0248 6.06788 34.0058 5.37419C32.8961 4.62269 31.9315 3.78809 31.2389 3.27505C30.7276 2.8993 30.4882 2.314 30.4737 2.27787C30.4048 2.32845 30.3251 2.39709 30.2308 2.49103ZM40.0111 10.3384C40.4934 10.613 41.3746 11.1261 41.9476 11.78C42.6003 12.5315 42.7707 13.4926 42.1833 13.8575C41.6792 14.1718 40.711 14.7969 39.8225 15.1654C38.3756 15.7651 36.9867 16.0686 36.9867 16.0686C36.9867 16.0686 36.0765 16.2709 36.1164 15.9241C35.79 16.5455 35.5833 17.0297 35.5724 17.2717C35.518 18.5146 35.2243 18.1497 35.2678 18.464C35.2714 18.4785 35.2714 18.4965 35.275 18.5218V18.5254C35.275 18.5254 35.2787 18.3556 35.6739 18.1461C35.7682 18.0955 36.0583 17.7956 36.8054 17.5463C37.4799 17.3223 38.3321 16.784 39.1806 16.4082C40.1779 15.9638 41.2912 15.6278 42.031 15.2954C42.7272 14.9811 43.05 14.7571 43.0862 14.7571C43.1878 14.7535 43.195 14.8583 43.1334 15.0028C44.5585 13.4926 45.563 12.0582 45.0445 10.9924C45.1134 11.2634 45.1279 11.6897 44.5549 11.5379C44.2213 11.4512 43.4307 11.1586 42.7381 10.6419C41.6139 9.80732 40.4753 9.29789 40.4753 9.29789C40.4753 9.29789 40.4317 9.26537 40.3955 9.11724C40.3955 9.11363 40.3919 9.11363 40.3919 9.11001C40.2033 9.39183 39.9676 9.73867 39.7065 10.1325C39.75 10.1722 39.8551 10.2517 40.0111 10.3384ZM11.6855 31.8682C12.186 30.6831 13.0418 29.4367 13.4806 28.7394C13.6292 28.5009 13.6909 28.3275 13.7163 28.2408C13.1324 27.7638 12.5486 27.5579 11.885 27.5651C11.914 27.6446 11.9756 27.8433 11.9502 28.1396C11.8922 28.8116 11.6239 29.9208 11.254 30.7771C10.5214 32.4824 9.23772 33.8084 9.11805 33.9312C9.42266 34.0396 9.71277 34.1444 9.98837 34.2528C10.4127 34.4226 10.7971 34.5815 11.1379 34.7152C11.1125 34.6827 11.0908 34.6249 11.0835 34.5237C11.0763 34.419 11.1488 33.14 11.6855 31.8682Z" fill="white"/>
<path fill-rule="evenodd" clip-rule="evenodd" d="M45.944 10.2482C45.944 10.2482 45.1823 9.45168 44.4351 8.36189C43.8075 7.4495 43.1981 6.37418 42.4364 5.51611C41.7726 4.76303 38.5587 3.99546 34.71 2.42051C32.8057 1.64208 30.8179 0.642803 29.2799 0.157645C28.0248 -0.236999 26.6935 0.233677 26.6935 0.233677C26.6935 0.233677 21.8075 1.71812 16.7908 3.07221C13.4536 3.97374 10.0076 4.69061 8.08508 5.34232C7.12745 5.66817 5.83248 7.3083 5.83248 7.3083C5.83248 7.3083 5.04534 8.81808 3.97889 10.3894C2.94871 11.9064 1.64648 13.4741 1.41433 13.8579C0.790421 14.8789 0.587288 15.8094 0.587288 15.8094C0.532877 16.6494 -0.627884 22.312 0.471212 23.695C3.41664 27.6161 5.43709 28.7458 5.20857 29.4119C5.23759 29.5676 4.84583 32.7248 6.05375 33.7639C6.6958 34.3142 7.5845 34.5894 8.38615 34.8899C7.93999 34.727 12.3872 36.559 13.3738 36.4685C14.6434 36.3526 15.6046 35.1578 15.7352 35.1506C15.7352 35.1506 16.8597 34.3902 16.555 35.7371C16.2503 37.0876 14.6978 39.9985 17.0846 39.9732C19.4714 39.9478 20.3239 40.4402 21.2742 38.0941C21.724 36.979 22.4749 35.0383 23.2185 33.4525C24.655 30.3823 24.8218 29.6111 27.1325 29.4916C29.1602 29.3866 31.3547 29.9261 33.0886 29.3649C33.7669 29.144 37.3254 26.7255 37.7389 25.9036C38.1488 25.0854 37.8369 23.8942 38.3737 23.3149C38.9323 22.7139 40.1874 22.7537 40.1874 22.7537C40.1874 22.7537 42.6177 22.6016 43.7205 21.7725C44.3299 21.3163 44.6853 20.5053 44.932 19.5567C45.1424 18.7493 45.2911 17.8044 45.6176 16.8268C46.1835 15.136 46.9379 13.3547 47.0069 12.0766C47.0576 11.1534 45.944 10.2482 45.944 10.2482ZM30.2375 2.44947C30.7272 1.97518 30.778 2.15259 31.5361 2.38792C32.2942 2.62688 38.381 4.48062 39.0702 6.31988C39.7594 8.15913 39.6397 7.99621 39.0012 9.05704C38.3628 10.1179 35.8817 14.3539 35.3049 14.85C34.7282 15.346 34.409 15.8746 33.8141 14.6001C33.2265 13.3221 30.067 3.58996 30.067 3.58996C30.067 3.58996 29.7478 2.92377 30.2375 2.44947ZM27.3864 10.0165C27.7636 7.59432 28.3549 5.04181 28.3549 5.04181C29.1094 3.19531 30.9593 8.9448 32.1056 13.8688C33.1829 18.4995 32.1564 17.2613 28.5834 16.6204C26.6355 16.2692 26.9329 12.9347 27.3864 10.0165ZM26.8386 5.74058C26.777 6.74348 26.3961 8.31844 26.3018 10.737C26.0914 16.0846 24.0963 17.7247 21.3613 19.2272C18.6081 20.737 18.7496 19.8717 18.6444 16.3344C18.5392 12.7681 25.8375 4.56389 25.8375 4.56389C26.5883 4.05701 26.9293 4.24166 26.8386 5.74058ZM11.7342 5.82748C12.953 5.03819 15.0605 4.46252 17.266 3.84702C21.2198 2.73912 25.7033 1.81587 25.7214 1.81225C27.1252 1.61674 21.7059 8.0831 19.5222 10.708C17.4619 13.1809 14.5273 11.1389 11.3026 8.42344C10.5444 7.78621 10.6895 6.50453 11.7342 5.82748ZM17.5707 20.6357C17.4727 22.493 15.699 23.5502 13.5298 23.7457C11.6798 23.9123 10.2506 21.6386 9.57593 19.9731C8.74526 17.4568 11.5311 16.8956 15.7243 15.1324C18.0277 14.2453 17.6686 18.7783 17.5707 20.6357ZM8.17577 9.07152C8.54576 7.86224 9.42721 8.64791 11.2917 9.78839C12.3872 10.4582 13.8127 11.3163 15.2782 12.283C17.0665 13.4597 14.861 14.4879 10.6279 16.0086C6.49629 17.4858 8.17577 9.07152 8.17577 9.07152ZM9.92779 22.4532C10.617 23.4163 11.4186 24.4481 11.7487 25.0419C12.3581 26.1389 10.0475 27.1744 8.31723 28.0144C6.58697 28.858 6.89167 27.6161 6.88805 26.3308C6.88442 25.0455 7.82754 20.9506 7.82754 20.9506C8.09596 19.9659 8.96653 21.1063 9.92779 22.4532ZM6.04287 24.8247C5.49876 28.6842 3.55448 25.5198 1.89314 23.5828C0.736011 22.2323 0.979045 20.527 1.26198 18.8254C1.38531 18.0795 1.42159 17.3083 1.51227 16.6168C1.81334 14.3431 4.93652 11.1027 4.93652 11.1027C4.93652 11.1027 5.42984 10.498 6.06826 11.1425C7.14922 12.2395 6.90256 16.9861 6.77922 17.6052C6.7103 17.9528 6.48903 18.9376 6.35845 20.451C6.25688 21.6241 6.27865 23.1375 6.04287 24.8247ZM15.5321 33.5394C14.2553 34.879 13.0764 35.1288 12.2566 35.0601C11.7306 35.013 10.9616 34.6654 9.98946 34.2744C9.35829 34.0246 8.6437 33.8037 7.85656 33.4779C5.8615 32.6451 6.5108 30.48 6.5108 30.48C6.44188 29.9514 8.97379 28.2606 10.773 27.7537C12.554 27.2505 13.6894 27.761 15.1657 29.9478C16.6094 32.0912 16.7944 32.2143 15.5321 33.5394ZM23.0299 31.4974C23.0299 31.4974 22.6272 33.1448 21.7603 34.937C20.8462 36.8269 19.4424 38.8617 18.677 38.8472C17.1826 38.8182 16.341 39.0717 17.1898 36.7835C18.0495 34.4663 18.9563 32.551 21.1437 31.606C23.3273 30.6647 23.1351 31.0448 23.0299 31.4974ZM19.573 31.1933C18.0966 31.7834 16.8126 30.3931 16.0653 29.4482C15.3181 28.5032 14.5999 27.5799 14.6035 26.3308C14.6071 25.0817 14.9844 24.8029 16.7037 23.5068C17.8536 22.913 19.3118 24.1693 20.868 25.5741C21.8075 26.425 22.805 27.2432 23.2366 28.0615C23.6066 28.8906 21.053 30.6031 19.573 31.1933ZM24.528 25.0926C24.1326 26.9246 23.2584 26.11 22.1557 24.9948C21.3214 24.1549 20.3021 23.3402 20.2005 22.569C19.9974 21.052 23.6429 19.0535 23.6429 19.0535C25.5001 17.8804 25.297 21.5336 24.528 25.0926ZM33.5892 27.8877C32.033 29.2273 29.8131 28.6371 27.4843 28.2063C25.1519 27.7718 25.7069 25.6719 25.6888 25.0093C25.6742 24.3504 25.9536 22.5111 26.0551 21.0629C26.1639 19.4952 27.4045 17.417 32.1274 18.4742C33.9592 18.8833 34.4598 19.3648 35.45 22.5437C36.4403 25.7226 35.1453 26.5481 33.5892 27.8877ZM43.9127 18.9811C43.2199 21.0303 42.1571 21.5806 39.7485 21.6639C37.3435 21.7472 38.7872 21.0774 39.364 20.136C39.9371 19.1947 44.192 15.2555 44.192 15.2555C45.4362 14.3467 44.6998 16.6566 43.9127 18.9811ZM40.2781 17.8044C39.4801 18.5828 38.6857 19.2128 38.0654 19.8174C35.4101 22.3989 35.3194 18.7783 35.2759 18.4597C35.2324 18.1411 35.5262 18.5104 35.5806 17.2649C35.635 16.0194 40.902 8.34378 40.902 8.34378C40.902 8.34378 41.6238 7.26123 42.2913 7.47122C43.0893 7.72466 43.949 9.33944 44.9465 10.7841C46.1254 12.4966 42.839 15.3025 40.2781 17.8044Z" fill="white"/>
</svg>
