<svg width="19" height="17" viewBox="0 0 19 17" fill="none" xmlns="http://www.w3.org/2000/svg">
<path d="M7.83008 9.06667H11.1699V10.2H7.83008V9.06667Z" fill="white"/>
<path d="M15.4145 10.2H12.2832V10.7667C12.2832 11.0798 12.0342 11.3333 11.7266 11.3333H7.27344C6.96584 11.3333 6.7168 11.0798 6.7168 10.7667V10.2H3.58555C2.86583 10.2 2.22932 9.73294 2.00144 9.03789L0 2.92438V15.3C0 16.2374 0.749146 17 1.66992 17H17.3301C18.2509 17 19 16.2374 19 15.3V2.92483L16.9984 9.03789C16.7707 9.73294 16.1342 10.2 15.4145 10.2Z" fill="white"/>
<path d="M11.7266 0H7.27344C6.35266 0 5.60352 0.762639 5.60352 1.7V2.26667H0.957741L3.05717 8.6793C3.13328 8.91113 3.34579 9.06667 3.58555 9.06667H6.7168V8.5C6.7168 8.18686 6.96584 7.93333 7.27344 7.93333H11.7266C12.0342 7.93333 12.2832 8.18686 12.2832 8.5V9.06667H15.4145C15.6542 9.06667 15.8667 8.91113 15.9428 8.6793L18.0424 2.26667H13.3965V1.7C13.3965 0.762639 12.6473 0 11.7266 0ZM6.7168 2.26667V1.7C6.7168 1.3873 6.96627 1.13333 7.27344 1.13333H11.7266C12.0337 1.13333 12.2832 1.3873 12.2832 1.7V2.26667H6.7168Z" fill="white"/>
</svg>
