<svg width="239" height="144" viewBox="0 0 239 144" fill="none" xmlns="http://www.w3.org/2000/svg">
<path d="M109.281 118.99V118.49H108.781H45.137L81.0027 84.3504C81.0032 84.35 81.0037 84.3495 81.0042 84.349C89.9366 75.9418 96.0176 68.42 99.2026 61.7846C102.382 55.1601 103.971 48.0721 103.971 40.5267C103.971 28.1943 99.4538 18.4093 90.4102 11.2275C81.3826 4.05863 69.3317 0.5 54.3089 0.5C42.9739 0.5 32.6785 2.5431 23.4307 6.63825C14.3135 10.6025 7.03099 16.2259 1.59913 23.5126L1.30478 23.9074L1.69514 24.2077L19.5903 37.9732L19.9837 38.2759L20.2892 37.8846C27.6517 28.4555 38.245 23.7215 52.1458 23.7215C60.4797 23.7215 66.7089 25.416 70.9114 28.7271C75.0965 32.0245 77.2103 36.7838 77.2103 43.0831C77.2103 47.3208 76.1193 51.6365 73.92 56.035L73.9173 56.0405C71.8585 60.2869 67.7795 65.3507 61.6332 71.2355C61.633 71.2357 61.6327 71.236 61.6325 71.2362L6.96524 123.15L6.80955 123.298V123.513V140.622V141.122H7.30955H108.781H109.281V140.622V118.99ZM129.979 110.154L129.98 110.156C134.996 120.848 141.87 129.053 150.611 134.748L150.616 134.751C159.354 140.312 169.281 143.088 180.382 143.088C191.482 143.088 201.409 140.312 210.147 134.751L210.149 134.75C219.022 129.055 225.963 120.85 230.98 110.156L230.981 110.154C236 99.3245 238.5 86.5329 238.5 71.794C238.5 57.0558 236 44.329 230.98 33.6291C225.965 22.8061 219.023 14.5991 210.148 9.03461C201.41 3.34245 191.483 0.5 180.382 0.5C169.28 0.5 159.352 3.34277 150.613 9.03557C141.869 14.6005 134.994 22.8074 129.979 33.6291C124.96 44.329 122.46 57.0558 122.46 71.794C122.46 86.5329 124.96 99.3245 129.979 110.154ZM203.178 107.885L203.175 107.889C197.631 115.884 190.049 119.867 180.382 119.867C170.848 119.867 163.264 115.886 157.587 107.888C152.034 99.8809 149.221 87.8748 149.221 71.794C149.221 55.7132 152.034 43.7072 157.587 35.7004C163.264 27.7019 170.848 23.7215 180.382 23.7215C190.049 23.7215 197.631 27.7042 203.175 35.6987L203.178 35.7031C208.86 43.709 211.739 55.7137 211.739 71.794C211.739 87.8743 208.86 99.879 203.178 107.885Z" stroke="white" stroke-opacity="0.1"/>
</svg>
