<svg width="67" height="54" viewBox="0 0 67 54" fill="none" xmlns="http://www.w3.org/2000/svg">
<path d="M26.5 49.3821L26.5001 49.3821L26.5067 49.3754C29.3392 46.5163 30.7424 42.8149 30.7424 38.3176C30.7424 35.1792 30.016 32.4327 28.5442 30.0981C27.1491 27.8851 25.2322 26.1986 22.8064 25.0409L29.361 1.1322L29.5343 0.5H28.8788H13.8788H13.54L13.4144 0.814696L4.62826 22.8339C2.91053 26.9139 1.78702 30.0013 1.27224 32.0798C0.757745 34.1571 0.5 36.2367 0.5 38.3176C0.5 42.7166 1.90552 46.3657 4.7357 49.2225L4.73565 49.2225L4.74216 49.2289C7.67122 52.0799 11.335 53.5 15.697 53.5C20.0532 53.5 23.6683 52.1346 26.5 49.3821ZM62.2576 49.3821L62.2577 49.3821L62.2643 49.3754C65.0968 46.5163 66.5 42.8149 66.5 38.3176C66.5 35.1793 65.7736 32.4327 64.3018 30.0981C62.9067 27.8851 60.9898 26.1986 58.564 25.0409L65.1186 1.1322L65.2919 0.5H64.6364H49.6364H49.2975L49.172 0.814696L40.3858 22.8338C38.6681 26.9139 37.5446 30.0013 37.0298 32.0798C36.5153 34.1571 36.2576 36.2367 36.2576 38.3176C36.2576 42.7166 37.6631 46.3657 40.4933 49.2225L40.4932 49.2225L40.4997 49.2289C43.4288 52.0799 47.0926 53.5 51.4545 53.5C55.8108 53.5 59.4259 52.1346 62.2576 49.3821Z" stroke="white" stroke-opacity="0.15"/>
</svg>
