<svg width="1444" height="570" viewBox="0 0 1444 570" fill="none" xmlns="http://www.w3.org/2000/svg">
<path d="M50.112 111.096L49.1482 110.829L48.9175 111.663L49.7093 112.011L50.112 111.096ZM57.6 155.736L58.2936 156.456L58.3004 156.45L58.3071 156.443L57.6 155.736ZM17.568 155.448L16.8609 156.155L16.8673 156.162L16.8739 156.168L17.568 155.448ZM11.232 124.056L10.2619 123.813L11.232 124.056ZM17.568 106.776L18.4883 107.167L18.492 107.158L18.4956 107.15L17.568 106.776ZM34.272 65.304V64.304H33.5967L33.3444 64.9304L34.272 65.304ZM62.784 65.304L63.7478 65.5707L64.0983 64.304H62.784V65.304ZM118.08 111.096L117.116 110.829L116.886 111.663L117.677 112.011L118.08 111.096ZM125.568 155.736L126.262 156.456L126.268 156.45L126.275 156.443L125.568 155.736ZM85.536 155.448L84.8289 156.155L84.8353 156.162L84.8419 156.168L85.536 155.448ZM79.2 124.056L78.2299 123.813L79.2 124.056ZM85.536 106.776L86.4563 107.167L86.46 107.158L86.4636 107.15L85.536 106.776ZM102.24 65.304V64.304H101.565L101.312 64.9304L102.24 65.304ZM130.752 65.304L131.716 65.5707L132.066 64.304H130.752V65.304ZM49.7093 112.011C54.3371 114.048 57.9238 117.088 60.5003 121.137L62.1877 120.063C59.3882 115.664 55.4869 112.368 50.5147 110.181L49.7093 112.011ZM60.5003 121.137C63.0716 125.177 64.376 129.977 64.376 135.576H66.376C66.376 129.655 64.9924 124.471 62.1877 120.063L60.5003 121.137ZM64.376 135.576C64.376 143.603 61.865 150.057 56.8929 155.029L58.3071 156.443C63.703 151.047 66.376 144.061 66.376 135.576H64.376ZM56.9064 155.016C51.9317 159.806 45.5672 162.224 37.728 162.224V164.224C46.0168 164.224 52.9003 161.65 58.2936 156.456L56.9064 155.016ZM37.728 162.224C29.9002 162.224 23.436 159.717 18.2621 154.728L16.8739 156.168C22.452 161.547 29.4278 164.224 37.728 164.224V162.224ZM18.2751 154.741C13.2983 149.764 10.792 143.404 10.792 135.576H8.792C8.792 143.876 11.4697 150.764 16.8609 156.155L18.2751 154.741ZM10.792 135.576C10.792 131.82 11.2614 128.062 12.2021 124.299L10.2619 123.813C9.28264 127.73 8.792 131.652 8.792 135.576H10.792ZM12.2021 124.299C13.142 120.539 15.2275 114.84 18.4883 107.167L16.6477 106.385C13.3805 114.072 11.242 119.893 10.2619 123.813L12.2021 124.299ZM18.4956 107.15L35.1996 65.6776L33.3444 64.9304L16.6404 106.402L18.4956 107.15ZM34.272 66.304H62.784V64.304H34.272V66.304ZM61.8202 65.0373L49.1482 110.829L51.0758 111.363L63.7478 65.5707L61.8202 65.0373ZM117.677 112.011C122.305 114.048 125.892 117.088 128.468 121.137L130.156 120.063C127.356 115.664 123.455 112.368 118.483 110.181L117.677 112.011ZM128.468 121.137C131.04 125.177 132.344 129.977 132.344 135.576H134.344C134.344 129.655 132.96 124.471 130.156 120.063L128.468 121.137ZM132.344 135.576C132.344 143.603 129.833 150.057 124.861 155.029L126.275 156.443C131.671 151.047 134.344 144.061 134.344 135.576H132.344ZM124.874 155.016C119.9 159.806 113.535 162.224 105.696 162.224V164.224C113.985 164.224 120.868 161.65 126.262 156.456L124.874 155.016ZM105.696 162.224C97.8682 162.224 91.404 159.717 86.2301 154.728L84.8419 156.168C90.42 161.547 97.3958 164.224 105.696 164.224V162.224ZM86.2431 154.741C81.2663 149.764 78.76 143.404 78.76 135.576H76.76C76.76 143.876 79.4377 150.764 84.8289 156.155L86.2431 154.741ZM78.76 135.576C78.76 131.82 79.2294 128.062 80.1701 124.299L78.2299 123.813C77.2506 127.73 76.76 131.652 76.76 135.576H78.76ZM80.1701 124.299C81.11 120.539 83.1955 114.84 86.4563 107.167L84.6157 106.385C81.3485 114.072 79.21 119.893 78.2299 123.813L80.1701 124.299ZM86.4636 107.15L103.168 65.6776L101.312 64.9304L84.6084 106.402L86.4636 107.15ZM102.24 66.304H130.752V64.304H102.24V66.304ZM129.788 65.0373L117.116 110.829L119.044 111.363L131.716 65.5707L129.788 65.0373Z" fill="white" fill-opacity="0.15"/>
<path d="M1393.89 458.904L1394.85 459.171L1395.08 458.337L1394.29 457.989L1393.89 458.904ZM1386.4 414.264L1385.71 413.544L1385.7 413.55L1385.69 413.557L1386.4 414.264ZM1426.43 414.552L1427.14 413.845L1427.13 413.838L1427.13 413.832L1426.43 414.552ZM1432.77 445.944L1433.74 446.187L1432.77 445.944ZM1426.43 463.224L1425.51 462.833L1425.51 462.842L1425.5 462.85L1426.43 463.224ZM1409.73 504.696V505.696H1410.4L1410.66 505.07L1409.73 504.696ZM1381.22 504.696L1380.25 504.429L1379.9 505.696H1381.22V504.696ZM1325.92 458.904L1326.88 459.171L1327.11 458.337L1326.32 457.989L1325.92 458.904ZM1318.43 414.264L1317.74 413.544L1317.73 413.55L1317.72 413.557L1318.43 414.264ZM1358.46 414.552L1359.17 413.845L1359.16 413.838L1359.16 413.832L1358.46 414.552ZM1364.8 445.944L1365.77 446.187L1364.8 445.944ZM1358.46 463.224L1357.54 462.833L1357.54 462.842L1357.54 462.85L1358.46 463.224ZM1341.76 504.696V505.696H1342.44L1342.69 505.07L1341.76 504.696ZM1313.25 504.696L1312.28 504.429L1311.93 505.696H1313.25V504.696ZM1394.29 457.989C1389.66 455.952 1386.08 452.912 1383.5 448.863L1381.81 449.937C1384.61 454.336 1388.51 457.632 1393.49 459.819L1394.29 457.989ZM1383.5 448.863C1380.93 444.823 1379.62 440.023 1379.62 434.424H1377.62C1377.62 440.345 1379.01 445.529 1381.81 449.937L1383.5 448.863ZM1379.62 434.424C1379.62 426.397 1382.13 419.943 1387.11 414.971L1385.69 413.557C1380.3 418.953 1377.62 425.939 1377.62 434.424H1379.62ZM1387.09 414.984C1392.07 410.194 1398.43 407.776 1406.27 407.776V405.776C1397.98 405.776 1391.1 408.35 1385.71 413.544L1387.09 414.984ZM1406.27 407.776C1414.1 407.776 1420.56 410.283 1425.74 415.272L1427.13 413.832C1421.55 408.453 1414.57 405.776 1406.27 405.776V407.776ZM1425.72 415.259C1430.7 420.236 1433.21 426.596 1433.21 434.424H1435.21C1435.21 426.124 1432.53 419.236 1427.14 413.845L1425.72 415.259ZM1433.21 434.424C1433.21 438.18 1432.74 441.938 1431.8 445.701L1433.74 446.187C1434.72 442.27 1435.21 438.348 1435.21 434.424H1433.21ZM1431.8 445.701C1430.86 449.461 1428.77 455.16 1425.51 462.833L1427.35 463.615C1430.62 455.928 1432.76 450.107 1433.74 446.187L1431.8 445.701ZM1425.5 462.85L1408.8 504.322L1410.66 505.07L1427.36 463.598L1425.5 462.85ZM1409.73 503.696H1381.22V505.696H1409.73V503.696ZM1382.18 504.963L1394.85 459.171L1392.92 458.637L1380.25 504.429L1382.18 504.963ZM1326.32 457.989C1321.69 455.952 1318.11 452.912 1315.53 448.863L1313.84 449.937C1316.64 454.336 1320.55 457.632 1325.52 459.819L1326.32 457.989ZM1315.53 448.863C1312.96 444.823 1311.66 440.023 1311.66 434.424H1309.66C1309.66 440.345 1311.04 445.529 1313.84 449.937L1315.53 448.863ZM1311.66 434.424C1311.66 426.397 1314.17 419.943 1319.14 414.971L1317.72 413.557C1312.33 418.953 1309.66 425.939 1309.66 434.424H1311.66ZM1319.13 414.984C1324.1 410.194 1330.46 407.776 1338.3 407.776V405.776C1330.02 405.776 1323.13 408.35 1317.74 413.544L1319.13 414.984ZM1338.3 407.776C1346.13 407.776 1352.6 410.283 1357.77 415.272L1359.16 413.832C1353.58 408.453 1346.6 405.776 1338.3 405.776V407.776ZM1357.76 415.259C1362.73 420.236 1365.24 426.596 1365.24 434.424H1367.24C1367.24 426.124 1364.56 419.236 1359.17 413.845L1357.76 415.259ZM1365.24 434.424C1365.24 438.18 1364.77 441.938 1363.83 445.701L1365.77 446.187C1366.75 442.27 1367.24 438.348 1367.24 434.424H1365.24ZM1363.83 445.701C1362.89 449.461 1360.8 455.16 1357.54 462.833L1359.38 463.615C1362.65 455.928 1364.79 450.107 1365.77 446.187L1363.83 445.701ZM1357.54 462.85L1340.83 504.322L1342.69 505.07L1359.39 463.598L1357.54 462.85ZM1341.76 503.696H1313.25V505.696H1341.76V503.696ZM1314.21 504.963L1326.88 459.171L1324.96 458.637L1312.28 504.429L1314.21 504.963Z" fill="white" fill-opacity="0.15"/>
<path d="M671.344 397.8V397.3H670.844H504.454L598.543 307.74C621.59 286.048 637.22 266.694 645.387 249.68C653.548 232.678 657.628 214.485 657.628 195.108C657.628 163.472 646.053 138.431 622.895 120.04C599.753 101.663 568.813 92.5 530.128 92.5C500.942 92.5 474.457 97.7604 450.679 108.29C427.24 118.481 408.541 132.926 394.599 151.629L394.305 152.024L394.695 152.324L440.923 187.884L441.317 188.187L441.622 187.796C460.816 163.214 488.43 150.904 524.54 150.904C546.158 150.904 562.454 155.297 573.507 164.005C584.541 172.699 590.08 185.242 590.08 201.712C590.08 212.799 587.225 224.069 581.497 235.524L581.494 235.53C576.114 246.626 565.497 259.785 549.594 275.011L408.372 409.121L408.216 409.269V409.484V453.68V454.18H408.716H670.844H671.344V453.68V397.8ZM726.322 374.642L726.323 374.644C739.226 402.149 756.895 423.223 779.335 437.843L779.339 437.846C801.777 452.125 827.272 459.26 855.808 459.26C884.343 459.26 909.838 452.125 932.276 437.846L932.278 437.845C955.057 423.225 972.896 402.151 985.8 374.644L985.801 374.642C998.708 346.792 1005.15 313.866 1005.15 275.88C1005.15 237.895 998.708 205.138 985.801 177.626C972.898 149.782 955.059 128.705 932.277 114.423C909.839 99.8052 884.344 92.5 855.808 92.5C827.27 92.5 801.775 99.8055 779.336 114.424C756.894 128.707 739.225 149.782 726.323 177.624C713.416 205.137 706.972 237.894 706.972 275.88C706.972 313.866 713.416 346.792 726.322 374.642ZM915.344 369.571L915.341 369.575C900.871 390.439 881.043 400.856 855.808 400.856C830.915 400.856 811.084 390.441 796.273 369.573C781.796 348.697 774.52 317.491 774.52 275.88C774.52 234.269 781.796 203.063 796.273 182.187C811.084 161.319 830.915 150.904 855.808 150.904C881.043 150.904 900.871 161.321 915.341 182.185L915.344 182.189C930.158 203.064 937.604 234.269 937.604 275.88C937.604 317.491 930.158 348.696 915.344 369.571Z" stroke="white" stroke-opacity="0.1"/>
</svg>
