<svg width="14" height="16" viewBox="0 0 14 16" fill="none" xmlns="http://www.w3.org/2000/svg">
<path d="M8.24964 6.66658C7.97173 6.66658 7.7356 6.56942 7.54121 6.37495C7.34674 6.18059 7.24962 5.94446 7.24962 5.66663V0H1.58296C1.30523 0 1.0691 0.0971601 0.87467 0.291626C0.680204 0.485983 0.583008 0.722115 0.583008 0.99995V15C0.583008 15.2779 0.680204 15.5141 0.87467 15.7084C1.06914 15.9027 1.30523 16 1.58299 16H12.9165C13.1942 16 13.4302 15.9027 13.6246 15.7084C13.819 15.5139 13.9162 15.2779 13.9162 15V6.66658H8.24964ZM11.2496 13C11.2496 13.0971 11.2184 13.1771 11.156 13.2395C11.0936 13.3018 11.0137 13.3331 10.9165 13.3331H3.58297C3.48581 13.3331 3.4059 13.3019 3.34337 13.2395C3.28102 13.177 3.24967 13.0971 3.24967 13V12.3333C3.24967 12.2359 3.28091 12.156 3.34337 12.0936C3.40594 12.0314 3.48584 11.9999 3.58297 11.9999H10.9165C11.0137 11.9999 11.0936 12.0314 11.156 12.0936C11.2184 12.156 11.2496 12.2359 11.2496 12.3333V13ZM11.2496 10.3333C11.2496 10.4307 11.2184 10.5103 11.156 10.573C11.0936 10.6353 11.0137 10.6666 10.9165 10.6666H3.58297C3.48581 10.6666 3.4059 10.6353 3.34337 10.573C3.28102 10.5103 3.24967 10.4307 3.24967 10.3333V9.66653C3.24967 9.56941 3.28091 9.48947 3.34337 9.42708C3.40594 9.36466 3.48584 9.33346 3.58297 9.33346H10.9165C11.0137 9.33346 11.0936 9.36466 11.156 9.42708C11.2184 9.48951 11.2496 9.56941 11.2496 9.66653V10.3333Z" fill="#E24325"/>
<path d="M13.2083 3.95827L9.95824 0.708137C9.61087 0.360907 9.15239 0.1351 8.58304 0.0310443V5.33322H13.8853C13.7811 4.76361 13.5553 4.30536 13.2083 3.95827Z" fill="#E24325"/>
</svg>
