<svg width="174" height="29" viewBox="0 0 174 29" fill="none" xmlns="http://www.w3.org/2000/svg">
<path d="M57.9312 21.0306C56.6266 21.0306 55.444 20.7547 54.3833 20.2027C53.3346 19.6388 52.5058 18.8649 51.8961 17.881C51.2986 16.8851 51 15.7632 51 14.5153C51 13.2674 51.2986 12.1516 51.8961 11.1677C52.5058 10.1718 53.3346 9.39784 54.3833 8.84591C55.444 8.28197 56.6326 8 57.9495 8C59.0588 8 60.0586 8.19198 60.9486 8.57594C61.851 8.9599 62.6067 9.51183 63.2162 10.2318L61.3145 11.9596C60.4487 10.9757 59.3758 10.4837 58.0958 10.4837C57.3034 10.4837 56.5962 10.6577 55.9744 11.0057C55.3526 11.3416 54.8648 11.8156 54.5113 12.4275C54.17 13.0395 53.9991 13.7354 53.9991 14.5153C53.9991 15.2952 54.17 15.9912 54.5113 16.6031C54.8648 17.215 55.3526 17.695 55.9744 18.043C56.5962 18.3789 57.3034 18.5469 58.0958 18.5469C59.3758 18.5469 60.4487 18.049 61.3145 17.0531L63.2162 18.7809C62.6067 19.5128 61.851 20.0707 60.9486 20.4547C60.0465 20.8387 59.0405 21.0306 57.9312 21.0306Z" fill="white"/>
<path d="M75.4805 10.5925H71.3841V20.8155H68.458V10.5925H64.3799V8.2168H75.4805V10.5925Z" fill="white"/>
<path d="M86.0087 18.1157H80.0652L78.9313 20.8155H75.8955L81.6014 8.2168H84.5275L90.2514 20.8155H87.1427L86.0087 18.1157ZM85.076 15.902L83.046 11.0785L81.0162 15.902H85.076Z" fill="white"/>
<path d="M100.453 10.5925H96.357V20.8155H93.4309V10.5925H89.3525V8.2168H100.453V10.5925Z" fill="white"/>
<path d="M114.602 8.2168L109.153 18.1877C108.628 19.1476 107.995 19.8736 107.251 20.3655C106.519 20.8575 105.721 21.1034 104.855 21.1034C104.184 21.1034 103.49 20.9594 102.77 20.6715L103.483 18.4577C103.995 18.6137 104.422 18.6917 104.764 18.6917C105.129 18.6917 105.459 18.6077 105.751 18.4397C106.044 18.2597 106.312 17.9838 106.556 17.6118L106.666 17.4678L101.618 8.2168H104.782L108.183 14.9841L111.695 8.2168H114.602Z" fill="white"/>
<path d="M121.6 21.0306C120.296 21.0306 119.113 20.7547 118.052 20.2027C117.004 19.6388 116.175 18.8649 115.565 17.881C114.968 16.8851 114.669 15.7632 114.669 14.5153C114.669 13.2674 114.968 12.1516 115.565 11.1677C116.175 10.1718 117.004 9.39784 118.052 8.84591C119.113 8.28197 120.302 8 121.618 8C122.728 8 123.728 8.19198 124.618 8.57594C125.52 8.9599 126.276 9.51183 126.885 10.2318L124.983 11.9596C124.118 10.9757 123.045 10.4837 121.765 10.4837C120.972 10.4837 120.265 10.6577 119.643 11.0057C119.021 11.3416 118.534 11.8156 118.18 12.4275C117.839 13.0395 117.668 13.7354 117.668 14.5153C117.668 15.2952 117.839 15.9912 118.18 16.6031C118.534 17.215 119.021 17.695 119.643 18.043C120.265 18.3789 120.972 18.5469 121.765 18.5469C123.045 18.5469 124.118 18.049 124.983 17.0531L126.885 18.7809C126.276 19.5128 125.52 20.0707 124.618 20.4547C123.715 20.8387 122.709 21.0306 121.6 21.0306Z" fill="white"/>
<path d="M138.952 15.74H136.903V20.8155H133.959V8.2168H136.903V13.3103H139.025L142.39 8.2168H145.517L141.329 14.3002L145.645 20.8155H142.28L138.952 15.74Z" fill="white"/>
<path d="M156.314 14.2462C157.094 14.4741 157.692 14.8461 158.106 15.362C158.521 15.878 158.728 16.5139 158.728 17.2698C158.728 18.3857 158.295 19.2556 157.43 19.8796C156.576 20.5035 155.351 20.8155 153.754 20.8155H147.444V8.2168H153.406C154.894 8.2168 156.052 8.49877 156.881 9.0627C157.71 9.62664 158.124 10.4306 158.124 11.4744C158.124 12.0984 157.966 12.6503 157.649 13.1303C157.332 13.5982 156.887 13.9702 156.314 14.2462ZM150.389 13.4363H153.15C153.796 13.4363 154.284 13.3103 154.613 13.0583C154.942 12.7943 155.107 12.4103 155.107 11.9064C155.107 11.4145 154.936 11.0365 154.595 10.7725C154.266 10.5086 153.784 10.3766 153.15 10.3766H150.389V13.4363ZM153.644 18.6557C155.034 18.6557 155.729 18.1157 155.729 17.0359C155.729 15.992 155.034 15.47 153.644 15.47H150.389V18.6557H153.644Z" fill="white"/>
<path d="M166.996 21.0306C165.667 21.0306 164.466 20.7487 163.393 20.1847C162.332 19.6208 161.497 18.8469 160.888 17.863C160.29 16.8671 159.991 15.7512 159.991 14.5153C159.991 13.2794 160.29 12.1696 160.888 11.1857C161.497 10.1898 162.332 9.40984 163.393 8.84591C164.466 8.28197 165.667 8 166.996 8C168.325 8 169.519 8.28197 170.58 8.84591C171.641 9.40984 172.476 10.1898 173.085 11.1857C173.695 12.1696 174 13.2794 174 14.5153C174 15.7512 173.695 16.8671 173.085 17.863C172.476 18.8469 171.641 19.6208 170.58 20.1847C169.519 20.7487 168.325 21.0306 166.996 21.0306ZM166.996 18.5469C167.751 18.5469 168.434 18.3789 169.044 18.043C169.654 17.695 170.129 17.215 170.47 16.6031C170.824 15.9912 171.001 15.2952 171.001 14.5153C171.001 13.7354 170.824 13.0395 170.47 12.4275C170.129 11.8156 169.654 11.3416 169.044 11.0057C168.434 10.6577 167.751 10.4837 166.996 10.4837C166.24 10.4837 165.557 10.6577 164.947 11.0057C164.338 11.3416 163.856 11.8156 163.502 12.4275C163.161 13.0395 162.991 13.7354 162.991 14.5153C162.991 15.2952 163.161 15.9912 163.502 16.6031C163.856 17.215 164.338 17.695 164.947 18.043C165.557 18.3789 166.24 18.5469 166.996 18.5469Z" fill="white"/>
<path fill-rule="evenodd" clip-rule="evenodd" d="M21.795 0L41.9624 5.41531L42 7.97624L40.1632 9.04657L41.9624 9.51244L42 12.0781L40.1305 13.1621L41.9624 13.6036L41.9998 16.2294L20.0684 29L0 23.6094V20.9825L1.73954 19.8715L0 19.4042V16.7723L1.71229 15.7114L0 15.2493V12.6068L21.795 0ZM3.19027 16.1103L1.94932 16.8792L19.9106 21.7038L39.9483 10.1461L38.7907 9.84632L20.1744 20.694L3.19027 16.1103ZM39.9671 6.0374L21.9523 1.20009L2.00111 12.7404L20.0165 17.6024L39.9671 6.0374ZM3.20093 20.264L1.92625 21.0782L19.9095 25.9088L39.9266 14.2632L38.7291 13.9746L20.0679 24.7948L3.20093 20.264Z" fill="white"/>
<path d="M20.2368 13L29 7.99952L25.3681 7L20.1297 10.0252L16.4434 9.0663L13 11.0712L20.2368 13Z" fill="white"/>
</svg>
