<svg width="246" height="41" viewBox="0 0 246 41" fill="none" xmlns="http://www.w3.org/2000/svg">
<path d="M85.0863 29.7158C83.2778 29.7158 81.6382 29.3233 80.1677 28.5382C78.7141 27.7361 77.5647 26.6353 76.7196 25.2359C75.8914 23.8194 75.4773 22.2237 75.4773 20.4488C75.4773 18.6739 75.8914 17.0867 76.7196 15.6873C77.5647 14.2708 78.7141 13.17 80.1677 12.385C81.6382 11.5829 83.2862 11.1818 85.1117 11.1818C86.6498 11.1818 88.0358 11.4549 89.2697 12.001C90.5205 12.5471 91.5685 13.3322 92.4136 14.3561L89.7768 16.8137C88.5767 15.4143 87.0893 14.7145 85.3145 14.7145C84.2159 14.7145 83.2355 14.962 82.3735 15.4569C81.5115 15.9348 80.8354 16.6089 80.3452 17.4793C79.8719 18.3497 79.6353 19.3395 79.6353 20.4488C79.6353 21.5581 79.8719 22.548 80.3452 23.4183C80.8354 24.2887 81.5115 24.9714 82.3735 25.4663C83.2355 25.9441 84.2159 26.1831 85.3145 26.1831C87.0893 26.1831 88.5767 25.4748 89.7768 24.0583L92.4136 26.5159C91.5685 27.5569 90.5205 28.3505 89.2697 28.8966C88.0189 29.4427 86.6245 29.7158 85.0863 29.7158Z" fill="white"/>
<path d="M109.415 14.8681H103.736V29.4086H99.6796V14.8681H94.0257V11.489H109.415V14.8681Z" fill="white"/>
<path d="M124.012 25.5687H115.772L114.2 29.4086H109.991L117.902 11.489H121.958L129.894 29.4086H125.584L124.012 25.5687ZM122.719 22.42L119.905 15.5593L117.09 22.42H122.719Z" fill="white"/>
<path d="M144.037 14.8681H138.358V29.4086H134.301V14.8681H128.647V11.489H144.037V14.8681Z" fill="white"/>
<path d="M163.654 11.489L156.098 25.6711C155.372 27.0364 154.493 28.0689 153.462 28.7686C152.447 29.4683 151.34 29.8182 150.14 29.8182C149.211 29.8182 148.247 29.6134 147.25 29.2038L148.239 26.0551C148.949 26.2769 149.54 26.3879 150.014 26.3879C150.521 26.3879 150.977 26.2684 151.383 26.0295C151.788 25.7735 152.16 25.381 152.498 24.8519L152.65 24.6471L145.653 11.489H150.039L154.755 21.1144L159.623 11.489H163.654Z" fill="white"/>
<path d="M173.355 29.7158C171.546 29.7158 169.907 29.3233 168.436 28.5382C166.983 27.7361 165.833 26.6353 164.988 25.2359C164.16 23.8194 163.746 22.2237 163.746 20.4488C163.746 18.6739 164.16 17.0867 164.988 15.6873C165.833 14.2708 166.983 13.17 168.436 12.385C169.907 11.5829 171.555 11.1818 173.38 11.1818C174.918 11.1818 176.304 11.4549 177.538 12.001C178.789 12.5471 179.837 13.3322 180.682 14.3561L178.045 16.8137C176.845 15.4143 175.358 14.7145 173.583 14.7145C172.485 14.7145 171.504 14.962 170.642 15.4569C169.78 15.9348 169.104 16.6089 168.614 17.4793C168.141 18.3497 167.904 19.3395 167.904 20.4488C167.904 21.5581 168.141 22.548 168.614 23.4183C169.104 24.2887 169.78 24.9714 170.642 25.4663C171.504 25.9441 172.485 26.1831 173.583 26.1831C175.358 26.1831 176.845 25.4748 178.045 24.0583L180.682 26.5159C179.837 27.5569 178.789 28.3505 177.538 28.8966C176.288 29.4427 174.893 29.7158 173.355 29.7158Z" fill="white"/>
<path d="M197.41 22.1896H194.571V29.4086H190.489V11.489H194.571V18.7336H197.512L202.177 11.489H206.512L200.706 20.1416L206.69 29.4086H202.025L197.41 22.1896Z" fill="white"/>
<path d="M221.48 20.0648C222.562 20.3891 223.39 20.9181 223.965 21.652C224.539 22.3858 224.827 23.2903 224.827 24.3655C224.827 25.9527 224.227 27.19 223.027 28.0774C221.843 28.9649 220.145 29.4086 217.93 29.4086H209.183V11.489H217.449C219.511 11.489 221.117 11.8901 222.266 12.6922C223.415 13.4943 223.99 14.6377 223.99 16.1225C223.99 17.0099 223.77 17.795 223.331 18.4776C222.891 19.1432 222.274 19.6723 221.48 20.0648ZM213.265 18.9128H217.094C217.99 18.9128 218.666 18.7336 219.122 18.3753C219.578 17.9998 219.807 17.4537 219.807 16.7369C219.807 16.0372 219.57 15.4996 219.097 15.1241C218.64 14.7487 217.973 14.5609 217.094 14.5609H213.265V18.9128ZM217.778 26.3367C219.705 26.3367 220.669 25.5687 220.669 24.0327C220.669 22.548 219.705 21.8056 217.778 21.8056H213.265V26.3367H217.778Z" fill="white"/>
<path d="M236.29 29.7158C234.447 29.7158 232.782 29.3147 231.295 28.5126C229.824 27.7105 228.666 26.6097 227.821 25.2103C226.993 23.7938 226.579 22.2066 226.579 20.4488C226.579 18.691 226.993 17.1123 227.821 15.7129C228.666 14.2964 229.824 13.1871 231.295 12.385C232.782 11.5829 234.447 11.1818 236.29 11.1818C238.132 11.1818 239.788 11.5829 241.259 12.385C242.729 13.1871 243.887 14.2964 244.732 15.7129C245.577 17.1123 246 18.691 246 20.4488C246 22.2066 245.577 23.7938 244.732 25.2103C243.887 26.6097 242.729 27.7105 241.259 28.5126C239.788 29.3147 238.132 29.7158 236.29 29.7158ZM236.29 26.1831C237.337 26.1831 238.284 25.9441 239.129 25.4663C239.974 24.9714 240.633 24.2887 241.107 23.4183C241.597 22.548 241.842 21.5581 241.842 20.4488C241.842 19.3395 241.597 18.3497 241.107 17.4793C240.633 16.6089 239.974 15.9348 239.129 15.4569C238.284 14.962 237.337 14.7145 236.29 14.7145C235.242 14.7145 234.295 14.962 233.45 15.4569C232.605 15.9348 231.937 16.6089 231.447 17.4793C230.974 18.3497 230.737 19.3395 230.737 20.4488C230.737 21.5581 230.974 22.548 231.447 23.4183C231.937 24.2887 232.605 24.9714 233.45 25.4663C234.295 25.9441 235.242 26.1831 236.29 26.1831Z" fill="white"/>
<path fill-rule="evenodd" clip-rule="evenodd" d="M29.9799 0L57.7211 7.65613L57.7727 11.2767L55.246 12.79L57.721 13.4486L57.7727 17.076L55.2011 18.6085L57.7211 19.2327L57.7725 22.945L27.605 41L0 33.3787V29.6649L2.3928 28.0941L0 27.4335V23.7126L2.35532 22.2127L0 21.5594V17.8234L29.9799 0ZM4.38834 22.7767L2.68138 23.8637L27.3879 30.6847L54.9505 14.3444L53.3581 13.9207L27.7507 29.257L4.38834 22.7767ZM54.9766 8.53565L30.1963 1.69668L2.75261 18.0123L27.5335 24.8861L54.9766 8.53565ZM4.40301 28.6491L2.64963 29.8001L27.3863 36.6295L54.9206 20.1653L53.2735 19.7572L27.6041 35.0546L4.40301 28.6491Z" fill="white"/>
<path d="M27.7005 17.7682L40.0368 10.4996L34.9241 9.0467L27.5499 13.444L22.3605 12.0503L17.5131 14.9646L27.7005 17.7682Z" fill="white"/>
</svg>
