<svg width="716" height="138" viewBox="0 0 716 138" fill="none" xmlns="http://www.w3.org/2000/svg">
<path d="M272.485 76.7253C267.5 76.7253 262.981 75.6722 258.928 73.5659C254.921 71.4139 251.754 68.4606 249.424 64.706C247.141 60.9057 246 56.6245 246 51.8626C246 47.1007 247.141 42.8425 249.424 39.0879C251.754 35.2875 254.921 32.3342 258.928 30.228C262.981 28.076 267.523 27 272.555 27C276.794 27 280.614 27.7326 284.015 29.1978C287.463 30.663 290.351 32.7692 292.68 35.5165L285.413 42.1099C282.105 38.3553 278.005 36.478 273.114 36.478C270.086 36.478 267.384 37.1419 265.008 38.4698C262.632 39.7518 260.768 41.5604 259.417 43.8956C258.113 46.2308 257.46 48.8864 257.46 51.8626C257.46 54.8388 258.113 57.4945 259.417 59.8297C260.768 62.1648 262.632 63.9963 265.008 65.3242C267.384 66.6062 270.086 67.2473 273.114 67.2473C278.005 67.2473 282.105 65.3471 285.413 61.5467L292.68 68.1401C290.351 70.9331 287.463 73.0623 284.015 74.5275C280.568 75.9927 276.724 76.7253 272.485 76.7253Z" fill="white"/>
<path d="M339.541 36.8901H323.888V75.9011H312.707V36.8901H297.124V27.8242H339.541V36.8901Z" fill="white"/>
<path d="M379.773 65.5989H357.062L352.729 75.9011H341.129L362.932 27.8242H374.113L395.985 75.9011H384.106L379.773 65.5989ZM376.209 57.1511L368.452 38.7445L360.696 57.1511H376.209Z" fill="white"/>
<path d="M434.967 36.8901H419.314V75.9011H408.133V36.8901H392.549V27.8242H434.967V36.8901Z" fill="white"/>
<path d="M489.035 27.8242L468.21 65.8736C466.207 69.5366 463.785 72.3068 460.943 74.1841C458.148 76.0614 455.096 77 451.789 77C449.226 77 446.571 76.4505 443.822 75.3516L446.547 66.9038C448.504 67.4991 450.135 67.7967 451.439 67.7967C452.837 67.7967 454.095 67.4762 455.213 66.8352C456.331 66.1484 457.356 65.0952 458.287 63.6758L458.707 63.1264L439.42 27.8242H451.509L464.507 53.6484L477.924 27.8242H489.035Z" fill="white"/>
<path d="M515.774 76.7253C510.789 76.7253 506.27 75.6722 502.217 73.5659C498.21 71.4139 495.042 68.4606 492.713 64.706C490.43 60.9057 489.289 56.6245 489.289 51.8626C489.289 47.1007 490.43 42.8425 492.713 39.0879C495.042 35.2875 498.21 32.3342 502.217 30.228C506.27 28.076 510.812 27 515.844 27C520.083 27 523.903 27.7326 527.304 29.1978C530.751 30.663 533.64 32.7692 535.969 35.5165L528.702 42.1099C525.394 38.3553 521.294 36.478 516.403 36.478C513.374 36.478 510.672 37.1419 508.296 38.4698C505.92 39.7518 504.057 41.5604 502.706 43.8956C501.401 46.2308 500.749 48.8864 500.749 51.8626C500.749 54.8388 501.401 57.4945 502.706 59.8297C504.057 62.1648 505.92 63.9963 508.296 65.3242C510.672 66.6062 513.374 67.2473 516.403 67.2473C521.294 67.2473 525.394 65.3471 528.702 61.5467L535.969 68.1401C533.64 70.9331 530.751 73.0623 527.304 74.5275C523.857 75.9927 520.013 76.7253 515.774 76.7253Z" fill="white"/>
<path d="M582.076 56.533H574.249V75.9011H562.998V27.8242H574.249V47.261H582.355L595.213 27.8242H607.163L591.16 51.0385L607.652 75.9011H594.794L582.076 56.533Z" fill="white"/>
<path d="M648.417 50.8324C651.399 51.7024 653.682 53.1218 655.266 55.0907C656.849 57.0595 657.641 59.4863 657.641 62.3709C657.641 66.6291 655.988 69.9487 652.68 72.3297C649.419 74.7106 644.737 75.9011 638.634 75.9011H614.525V27.8242H637.306C642.99 27.8242 647.416 28.9002 650.583 31.0522C653.751 33.2042 655.335 36.272 655.335 40.2555C655.335 42.6364 654.73 44.7427 653.518 46.5742C652.307 48.3599 650.607 49.7793 648.417 50.8324ZM625.776 47.7418H636.328C638.797 47.7418 640.66 47.261 641.918 46.2994C643.176 45.2921 643.805 43.8269 643.805 41.9038C643.805 40.0266 643.153 38.5842 641.848 37.5769C640.591 36.5696 638.75 36.0659 636.328 36.0659H625.776V47.7418ZM638.215 67.6593C643.526 67.6593 646.181 65.5989 646.181 61.478C646.181 57.4945 643.526 55.5027 638.215 55.5027H625.776V67.6593H638.215Z" fill="white"/>
<path d="M689.236 76.7253C684.158 76.7253 679.569 75.6493 675.469 73.4973C671.416 71.3452 668.225 68.3919 665.896 64.6374C663.613 60.837 662.471 56.5788 662.471 51.8626C662.471 47.1465 663.613 42.9112 665.896 39.1566C668.225 35.3562 671.416 32.38 675.469 30.228C679.569 28.076 684.158 27 689.236 27C694.314 27 698.879 28.076 702.932 30.228C706.985 32.38 710.177 35.3562 712.506 39.1566C714.835 42.9112 716 47.1465 716 51.8626C716 56.5788 714.835 60.837 712.506 64.6374C710.177 68.3919 706.985 71.3452 702.932 73.4973C698.879 75.6493 694.314 76.7253 689.236 76.7253ZM689.236 67.2473C692.124 67.2473 694.733 66.6062 697.062 65.3242C699.392 63.9963 701.209 62.1648 702.513 59.8297C703.864 57.4945 704.54 54.8388 704.54 51.8626C704.54 48.8864 703.864 46.2308 702.513 43.8956C701.209 41.5604 699.392 39.7518 697.062 38.4698C694.733 37.1419 692.124 36.478 689.236 36.478C686.347 36.478 683.738 37.1419 681.409 38.4698C679.08 39.7518 677.239 41.5604 675.888 43.8956C674.584 46.2308 673.932 48.8864 673.932 51.8626C673.932 54.8388 674.584 57.4945 675.888 59.8297C677.239 62.1648 679.08 63.9963 681.409 65.3242C683.738 66.6062 686.347 67.2473 689.236 67.2473Z" fill="white"/>
<path d="M257.012 109.463H249.591L248.055 112.951H246L252.324 99H254.299L260.643 112.951H258.548L257.012 109.463ZM256.314 107.869L253.302 101.033L250.289 107.869H256.314Z" fill="white"/>
<path d="M275.019 99L268.815 110.499C268.323 111.416 267.744 112.1 267.079 112.552C266.414 113.004 265.689 113.23 264.904 113.23C264.293 113.23 263.668 113.09 263.029 112.811L263.548 111.217C264.04 111.39 264.479 111.476 264.865 111.476C265.742 111.476 266.467 111.011 267.039 110.081L267.358 109.583L261.732 99H263.867L268.396 107.849L273.044 99H275.019Z" fill="white"/>
<path d="M291.417 111.217V116H289.562V112.951H278.071L278.051 116H276.195L276.215 111.217H276.894C277.771 111.164 278.39 110.473 278.749 109.144C279.108 107.802 279.327 105.916 279.407 103.484L279.547 99H289.362V111.217H291.417ZM281.163 103.664C281.096 105.63 280.937 107.258 280.684 108.546C280.445 109.835 280.052 110.725 279.507 111.217H287.387V100.734H281.263L281.163 103.664Z" fill="white"/>
<path d="M295.341 99H297.316V109.762L305.575 99H307.411V112.951H305.456V102.209L297.177 112.951H295.341V99Z" fill="white"/>
<path d="M322.557 100.734H317.77V112.951H315.814V100.734H311.046V99H322.557V100.734Z" fill="white"/>
<path d="M332.734 99H334.709V109.762L342.968 99H344.803V112.951H342.848V102.209L334.569 112.951H332.734V99Z" fill="white"/>
<path d="M356.909 99H367.442V100.694H358.884V104.68H363.233C364.895 104.68 366.159 105.025 367.023 105.716C367.887 106.407 368.32 107.404 368.32 108.706C368.32 110.074 367.848 111.124 366.903 111.855C365.972 112.585 364.636 112.951 362.893 112.951H356.909V99ZM362.814 111.376C363.957 111.376 364.829 111.157 365.427 110.719C366.026 110.28 366.325 109.636 366.325 108.785C366.325 107.098 365.154 106.254 362.814 106.254H358.884V111.376H362.814Z" fill="white"/>
<path d="M383.661 99L377.457 110.499C376.965 111.416 376.386 112.1 375.721 112.552C375.056 113.004 374.331 113.23 373.547 113.23C372.935 113.23 372.31 113.09 371.671 112.811L372.19 111.217C372.682 111.39 373.121 111.476 373.507 111.476C374.385 111.476 375.109 111.011 375.681 110.081L376.001 109.583L370.375 99H372.509L377.038 107.849L381.686 99H383.661Z" fill="white"/>
<path d="M387.551 99L391.202 104.102L394.852 99H397.186L392.458 105.696L397.565 112.951H395.211L391.202 107.39L387.212 112.951H384.917L390.005 105.776L385.257 99H387.551Z" fill="white"/>
<path d="M409.945 100.734H402.763L402.783 112.951H400.808V99H409.965L409.945 100.734Z" fill="white"/>
<path d="M419.966 109.463H412.545L411.008 112.951H408.954L415.278 99H417.253L423.597 112.951H421.502L419.966 109.463ZM419.268 107.869L416.255 101.033L413.243 107.869H419.268Z" fill="white"/>
<path d="M438.673 99V112.951H436.718V100.734H430.534L430.394 104.819C430.328 106.746 430.168 108.307 429.916 109.503C429.676 110.699 429.29 111.602 428.758 112.213C428.226 112.811 427.508 113.11 426.604 113.11C426.192 113.11 425.773 113.057 425.347 112.951L425.487 111.177C425.7 111.23 425.912 111.257 426.125 111.257C426.697 111.257 427.156 111.031 427.502 110.579C427.847 110.114 428.107 109.423 428.28 108.506C428.453 107.59 428.566 106.381 428.619 104.879L428.838 99H438.673Z" fill="white"/>
<path d="M453.816 100.734H449.028V112.951H447.073V100.734H442.305V99H453.816V100.734Z" fill="white"/>
<path d="M467.572 111.217V112.951H457.438V99H467.293V100.734H459.433V105.019H466.435V106.713H459.433V111.217H467.572Z" fill="white"/>
<path d="M477.348 99C479.157 99 480.58 99.4318 481.617 100.295C482.655 101.159 483.173 102.348 483.173 103.863C483.173 105.377 482.655 106.567 481.617 107.43C480.58 108.294 479.157 108.726 477.348 108.726H473.897V112.951H471.902V99H477.348ZM477.288 106.992C478.552 106.992 479.516 106.726 480.181 106.195C480.846 105.65 481.178 104.873 481.178 103.863C481.178 102.853 480.846 102.082 480.181 101.551C479.516 101.006 478.552 100.734 477.288 100.734H473.897V106.992H477.288Z" fill="white"/>
<path d="M487.145 99H489.12V109.762L497.38 99H499.215V112.951H497.26V102.209L488.981 112.951H487.145V99Z" fill="white"/>
<path d="M515 99V112.951H513.045V108.885H509.195C508.955 108.885 508.776 108.878 508.656 108.865L505.863 112.951H503.748L506.841 108.526C505.843 108.194 505.078 107.643 504.546 106.872C504.014 106.088 503.748 105.138 503.748 104.022C503.748 102.441 504.254 101.212 505.265 100.335C506.289 99.4451 507.665 99 509.394 99H515ZM505.763 104.002C505.763 105.039 506.063 105.836 506.661 106.394C507.273 106.939 508.171 107.211 509.354 107.211H513.045V100.734H509.474C508.277 100.734 507.359 101.013 506.721 101.571C506.083 102.129 505.763 102.939 505.763 104.002Z" fill="white"/>
<path fill-rule="evenodd" clip-rule="evenodd" d="M103.267 0L198.822 25.7694L199 37.9559L190.297 43.0492L198.822 45.2661L199 57.4752L190.142 62.6334L198.822 64.7345L198.999 77.2295L95.0861 138L0 112.348V99.8476L8.24209 94.5607L0 92.3372V79.8132L8.11297 74.7648L0 72.5658V59.9911L103.267 0ZM15.1158 76.6629L9.23608 80.3216L94.3385 103.28L189.279 48.2813L183.794 46.8549L95.5881 98.4749L15.1158 76.6629ZM189.368 28.7297L104.012 5.71076L9.48145 60.6267L94.84 83.7631L189.368 28.7297ZM15.1663 96.4287L9.12675 100.303L94.333 123.29L189.176 67.8733L183.502 66.5L95.0834 117.989L15.1663 96.4287Z" fill="white"/>
<path d="M95.4152 59.8054L137.908 35.3402L120.297 30.45L94.8962 45.2508L77.0214 40.5595L60.3242 50.3687L95.4152 59.8054Z" fill="white"/>
</svg>
