<svg width="21" height="17" viewBox="0 0 21 17" fill="none" xmlns="http://www.w3.org/2000/svg">
<path d="M18.545 16.0129C19.0027 16.0129 19.3994 15.8618 19.7365 15.5634L13.9672 9.79382C13.8288 9.89294 13.6946 9.98933 13.5679 10.081C13.1362 10.3991 12.7857 10.6473 12.5167 10.8252C12.2476 11.0034 11.8897 11.1852 11.4428 11.3707C10.9957 11.5564 10.5791 11.649 10.1927 11.649H10.1701C9.78364 11.649 9.36708 11.5565 8.91999 11.3707C8.4729 11.1852 8.11494 11.0034 7.84616 10.8252C7.57712 10.6473 7.22689 10.3991 6.79492 10.081C6.67454 9.99273 6.54104 9.8959 6.3967 9.79227L0.62627 15.5634C0.963411 15.8618 1.3603 16.0129 1.818 16.0129H18.545Z" fill="white"/>
<path d="M1.1476 6.16074C0.715889 5.87292 0.333051 5.54328 -0.000244141 5.17198V13.9499L5.08482 8.86481C4.06751 8.15459 2.75677 7.25427 1.1476 6.16074Z" fill="white"/>
<path d="M19.227 6.16074C17.6792 7.20835 16.3637 8.11023 15.2803 8.86684L20.3633 13.9501V5.17198C20.0374 5.53581 19.6587 5.86522 19.227 6.16074Z" fill="white"/>
<path d="M18.545 0.0129395H1.81804C1.23448 0.0129395 0.785838 0.209996 0.471546 0.603702C0.156994 0.997594 -2.23133e-05 1.4902 -2.23133e-05 2.08096C-2.23133e-05 2.55815 0.208348 3.07519 0.624902 3.63224C1.04146 4.18906 1.48471 4.62643 1.95442 4.94457C2.21193 5.1265 2.98847 5.66636 4.28406 6.56394C4.98344 7.0486 5.59165 7.47103 6.11432 7.83557C6.55982 8.14598 6.94402 8.4148 7.26124 8.63788C7.29765 8.66343 7.35492 8.70439 7.43093 8.75874C7.51283 8.81756 7.61646 8.89221 7.7443 8.98452C7.9905 9.16258 8.19502 9.30651 8.35791 9.41646C8.52059 9.52645 8.71768 9.6493 8.9489 9.78573C9.17993 9.92197 9.39784 10.0244 9.60237 10.0926C9.80693 10.1607 9.99629 10.1948 10.1705 10.1948H10.1931C10.3673 10.1948 10.5567 10.1607 10.7613 10.0926C10.9658 10.0244 11.1835 9.92219 11.4147 9.78573C11.6457 9.6493 11.8426 9.52619 12.0058 9.41646C12.1687 9.30651 12.3732 9.16261 12.6194 8.98452C12.747 8.89221 12.8506 8.81753 12.9325 8.75893C13.0086 8.70436 13.0658 8.66365 13.1024 8.63788C13.3495 8.46593 13.7346 8.19822 14.2524 7.83871C15.1945 7.18414 16.5819 6.2207 18.4206 4.94457C18.9736 4.55833 19.4356 4.09223 19.8069 3.54694C20.1775 3.00166 20.3633 2.42967 20.3633 1.83118C20.3633 1.33115 20.1832 0.90328 19.8236 0.546915C19.4637 0.190993 19.0374 0.0129395 18.545 0.0129395Z" fill="white"/>
</svg>
