<svg width="17" height="22" viewBox="0 0 17 22" fill="none" xmlns="http://www.w3.org/2000/svg">
<path d="M8.53431 10.7594C10.9803 10.7594 12.9634 8.35088 12.9634 5.37975C12.9634 2.40856 12.3123 0 8.53431 0C4.75628 0 4.10509 2.40856 4.10509 5.37975C4.10509 8.35088 6.08816 10.7594 8.53431 10.7594Z" fill="white"/>
<path d="M0.168597 18.9737C0.167086 18.9226 0.167841 18.7925 0.168597 18.9737V18.9737Z" fill="white"/>
<path d="M16.8997 19.1151C16.9005 18.771 16.902 19.0655 16.8997 19.1151V19.1151Z" fill="white"/>
<path d="M16.8902 18.7564C16.8082 13.5806 16.1322 12.1058 10.9595 11.1722C10.9595 11.1722 10.2314 12.1001 8.53425 12.1001C6.83711 12.1001 6.10885 11.1722 6.10885 11.1722C0.992595 12.0956 0.275521 13.5485 0.181236 18.5882C0.173504 18.9998 0.16998 19.0214 0.168597 18.9737C0.168911 19.0632 0.16923 19.2287 0.16923 19.5174C0.16923 19.5174 1.40073 22 8.53425 22C15.6677 22 16.8993 19.5174 16.8993 19.5174C16.8993 19.3319 16.8995 19.2029 16.8997 19.1151C16.8983 19.1447 16.8954 19.0875 16.8902 18.7564Z" fill="white"/>
</svg>
