<svg width="24" height="24" viewBox="0 0 24 24" fill="none" xmlns="http://www.w3.org/2000/svg">
<path d="M18.2478 14.8671C17.7747 14.3555 17.204 14.082 16.5991 14.082C15.9992 14.082 15.4236 14.3505 14.931 14.8621L13.3897 16.4577C13.2628 16.3868 13.136 16.3209 13.0141 16.2551C12.8385 16.1639 12.6726 16.0778 12.5312 15.9866C11.0874 15.0343 9.77533 13.7933 8.5169 12.1876C7.9072 11.3872 7.49748 10.7135 7.19994 10.0297C7.59991 9.64982 7.97061 9.25472 8.33156 8.87481C8.46813 8.73298 8.6047 8.58609 8.74128 8.44426C9.76558 7.38053 9.76558 6.00275 8.74128 4.93902L7.40968 3.55618C7.25848 3.39915 7.10239 3.23706 6.95606 3.07497C6.6634 2.76092 6.35611 2.43673 6.03907 2.13281C5.56594 1.64654 5.00013 1.3882 4.40506 1.3882C3.80999 1.3882 3.23443 1.64654 2.74667 2.13281C2.74179 2.13788 2.74179 2.13788 2.73691 2.14294L1.07852 3.88036C0.45418 4.52873 0.0981128 5.31893 0.0200707 6.23576C-0.0969924 7.71485 0.322484 9.09263 0.644408 9.99426C1.43458 12.2078 2.61497 14.2593 4.3758 16.4577C6.5122 19.1069 9.08271 21.1989 12.019 22.6729C13.1409 23.225 14.6383 23.8784 16.3114 23.9899C16.4138 23.9949 16.5211 24 16.6187 24C17.7454 24 18.6916 23.5796 19.433 22.7438C19.4379 22.7337 19.4477 22.7286 19.4526 22.7185C19.7062 22.3993 19.9988 22.1106 20.3061 21.8016C20.5159 21.594 20.7305 21.3761 20.9402 21.1482C21.4231 20.6265 21.6768 20.0186 21.6768 19.3956C21.6768 18.7675 21.4182 18.1647 20.9256 17.6582L18.2478 14.8671ZM19.994 20.201C19.9891 20.206 19.9891 20.201 19.994 20.201C19.8037 20.4137 19.6086 20.6062 19.3989 20.819C19.0819 21.133 18.7599 21.4623 18.4575 21.832C17.9649 22.3791 17.3844 22.6374 16.6235 22.6374C16.5504 22.6374 16.4723 22.6374 16.3992 22.6324C14.9505 22.5361 13.6043 21.9485 12.5946 21.4471C9.83387 20.0591 7.40968 18.0887 5.39522 15.5915C3.73195 13.5096 2.61985 11.5848 1.88333 9.51812C1.42971 8.25684 1.26387 7.27416 1.33703 6.3472C1.38581 5.75455 1.6053 5.26321 2.01014 4.84278L3.67342 3.11549C3.91242 2.88249 4.16606 2.75585 4.41482 2.75585C4.72211 2.75585 4.97087 2.94834 5.12695 3.11043C5.13183 3.11549 5.13671 3.12056 5.14158 3.12562C5.43912 3.41435 5.72202 3.71321 6.01956 4.03232C6.17076 4.19442 6.32685 4.35651 6.48293 4.52366L7.81453 5.90651C8.33156 6.44344 8.33156 6.93984 7.81453 7.47677C7.67308 7.62367 7.5365 7.77056 7.39505 7.91239C6.98533 8.34802 6.59512 8.75325 6.17076 9.14834C6.16101 9.15847 6.15125 9.16354 6.14638 9.17367C5.7269 9.60929 5.80494 10.0348 5.89274 10.3235C5.89762 10.3387 5.90249 10.3539 5.90737 10.3691C6.25368 11.2403 6.74145 12.0609 7.48285 13.0385L7.48773 13.0436C8.83395 14.7658 10.2533 16.1082 11.8191 17.1364C12.019 17.2681 12.2239 17.3745 12.419 17.4758C12.5946 17.567 12.7604 17.6531 12.9019 17.7443C12.9214 17.7544 12.9409 17.7696 12.9604 17.7797C13.1263 17.8658 13.2824 17.9064 13.4433 17.9064C13.8482 17.9064 14.1018 17.643 14.1847 17.5569L15.8529 15.8245C16.0187 15.6523 16.2821 15.4446 16.5894 15.4446C16.8918 15.4446 17.1406 15.6421 17.2918 15.8144C17.2966 15.8194 17.2966 15.8194 17.3015 15.8245L19.9891 18.6155C20.4915 19.1322 20.4915 19.664 19.994 20.201Z" fill="black"/>
<path d="M12.4727 5.70897C13.7506 5.93185 14.9115 6.55996 15.8382 7.52238C16.765 8.48479 17.3649 9.69035 17.5844 11.0175C17.6381 11.3518 17.9161 11.5848 18.2331 11.5848C18.2722 11.5848 18.3063 11.5797 18.3453 11.5747C18.7063 11.5139 18.9453 11.1593 18.8868 10.7845C18.6234 9.17875 17.8917 7.71486 16.7747 6.55489C15.6578 5.39492 14.2481 4.63512 12.7019 4.36159C12.341 4.3008 12.0044 4.54901 11.941 4.91878C11.8776 5.28855 12.1117 5.64819 12.4727 5.70897Z" fill="black"/>
<path d="M23.0669 10.5869C22.6328 7.94279 21.4329 5.53674 19.5891 3.62203C17.7454 1.70732 15.4285 0.461243 12.8824 0.0104253C12.5263 -0.0554245 12.1898 0.197844 12.1264 0.567616C12.0678 0.942453 12.3068 1.29196 12.6678 1.35781C14.9407 1.75798 17.0137 2.87742 18.6624 4.58445C20.311 6.29655 21.3841 8.44933 21.7694 10.8098C21.8231 11.1441 22.1011 11.3771 22.4182 11.3771C22.4572 11.3771 22.4913 11.372 22.5303 11.367C22.8864 11.3113 23.1303 10.9567 23.0669 10.5869Z" fill="black"/>
</svg>
