<svg width="21" height="20" viewBox="0 0 21 20" fill="none" xmlns="http://www.w3.org/2000/svg">
<path d="M20.9092 15.7839C20.9515 16.1088 20.8526 16.3912 20.6128 16.6313L17.7968 19.4278C17.6698 19.5691 17.5039 19.6892 17.2993 19.788C17.0946 19.8869 16.8935 19.9505 16.696 19.9787C16.6818 19.9787 16.6394 19.9823 16.5688 19.9894C16.4983 19.9964 16.4066 20 16.2936 20C16.0254 20 15.5913 19.9541 14.9914 19.8623C14.3915 19.7704 13.6576 19.5444 12.7896 19.1843C11.9214 18.8241 10.9369 18.2838 9.83593 17.5635C8.73499 16.8433 7.5634 15.8545 6.32128 14.5974C5.33322 13.6229 4.51455 12.6907 3.86526 11.8009C3.21596 10.911 2.69371 10.0883 2.29848 9.33261C1.90323 8.57696 1.60681 7.89194 1.4092 7.27753C1.21159 6.66312 1.0775 6.13346 1.00692 5.68855C0.936345 5.24363 0.908115 4.89406 0.92223 4.63982C0.936345 4.38559 0.943403 4.24434 0.943403 4.21609C0.971633 4.01835 1.03515 3.81708 1.13396 3.61228C1.23276 3.40748 1.35274 3.24152 1.49389 3.1144L4.30985 0.29661C4.50746 0.0988699 4.7333 0 4.98737 0C5.17087 0 5.33319 0.052966 5.47434 0.158898C5.61549 0.26483 5.73547 0.39548 5.83427 0.550847L8.09974 4.85169C8.22678 5.07767 8.26207 5.32485 8.20561 5.59321C8.14915 5.86157 8.02917 6.08756 7.84567 6.27118L6.80821 7.30931C6.77998 7.33756 6.75528 7.38346 6.73411 7.44702C6.71294 7.51058 6.70235 7.56355 6.70235 7.60592C6.75881 7.90253 6.88585 8.24151 7.08346 8.62287C7.25284 8.96185 7.51397 9.37498 7.86684 9.86227C8.21972 10.3496 8.72081 10.911 9.3701 11.5466C10.0053 12.1963 10.5699 12.7012 11.0639 13.0615C11.5578 13.4215 11.9708 13.6864 12.3025 13.8559C12.6342 14.0254 12.8883 14.1278 13.0647 14.163L13.3293 14.216C13.3575 14.216 13.4035 14.2054 13.467 14.1842C13.5305 14.163 13.5764 14.1383 13.6046 14.11L14.8114 12.8812C15.0656 12.6553 15.3619 12.5423 15.7007 12.5423C15.9407 12.5423 16.1312 12.5846 16.2723 12.6694H16.2935L20.3797 15.0847C20.6763 15.2684 20.8527 15.5014 20.9092 15.7839Z" fill="white"/>
</svg>
