<svg width="127" height="101" viewBox="0 0 127 101" fill="none" xmlns="http://www.w3.org/2000/svg">
<path d="M49.9468 92.0964L49.9469 92.0964L49.9535 92.0898C55.2435 86.7998 57.876 79.9466 57.876 71.5762C57.876 65.7358 56.5122 60.6475 53.7658 56.3318C51.0965 52.1371 47.4059 48.9644 42.7084 46.8158L55.2659 1.43755L55.4412 0.804199H54.784H26.272H25.9343L25.8082 1.11739L9.10598 42.585C5.84143 50.2666 3.71682 56.0553 2.74692 59.9349C1.77731 63.8134 1.29199 67.6941 1.29199 71.5762C1.29199 79.7582 3.92685 86.5142 9.21444 91.8018L9.21438 91.8018L9.22093 91.8081C14.698 97.0896 21.5459 99.7242 29.728 99.7242C37.9044 99.7242 44.6581 97.1892 49.9468 92.0964ZM117.915 92.0964L117.915 92.0964L117.922 92.0898C123.211 86.7998 125.844 79.9466 125.844 71.5762C125.844 65.7358 124.48 60.6475 121.734 56.3318C119.064 52.1371 115.374 48.9644 110.676 46.8158L123.234 1.43755L123.409 0.804199H122.752H94.24H93.9024L93.7762 1.11739L77.0758 42.5806C77.0752 42.582 77.0746 42.5834 77.074 42.5848C73.8094 50.2665 71.6848 56.0553 70.7149 59.9349C69.7453 63.8134 69.26 67.6941 69.26 71.5762C69.26 79.7582 71.8949 86.5142 77.1824 91.8018L77.1824 91.8018L77.1889 91.8081C82.666 97.0896 89.5139 99.7242 97.696 99.7242C105.872 99.7242 112.626 97.1892 117.915 92.0964Z" stroke="white" stroke-opacity="0.15"/>
</svg>
