<svg width="128" height="102" viewBox="0 0 128 102" fill="none" xmlns="http://www.w3.org/2000/svg">
<path fill-rule="evenodd" clip-rule="evenodd" d="M85.2327 54.1279C80.4327 52.0159 76.6887 48.8479 74.0007 44.6239C71.3127 40.3999 69.9687 35.4079 69.9687 29.6479C69.9687 21.3919 72.5607 14.6719 77.7447 9.48792C82.9287 4.49591 89.5527 1.99991 97.6167 1.99991C105.681 1.99991 112.401 4.59192 117.777 9.77591C122.961 14.9599 125.553 21.5839 125.553 29.6479C125.553 33.4879 125.073 37.3279 124.113 41.1679C123.153 45.0079 121.041 50.7679 117.777 58.4479L101.073 99.9199H72.5607L85.2327 54.1279ZM119.625 59.2127C122.891 51.5262 125.053 45.6512 126.053 41.653C127.051 37.6592 127.553 33.6564 127.553 29.6479C127.553 21.1117 124.789 13.9601 119.191 8.36169L119.178 8.34885L119.165 8.33623C113.385 2.76247 106.153 -9.15527e-05 97.6167 -9.15527e-05C89.1031 -9.15527e-05 81.9602 2.65202 76.3574 8.04727L76.3439 8.06036L76.3305 8.0737C70.7228 13.6814 67.9687 20.9345 67.9687 29.6479C67.9687 35.7297 69.3919 41.1067 72.3134 45.6977C74.9215 49.7961 78.4509 52.9703 82.8569 55.2144L69.9321 101.92H102.423L119.625 59.2127ZM17.2647 54.1279C12.4647 52.0159 8.72073 48.8479 6.03272 44.6239C3.34472 40.3999 2.00072 35.4079 2.00072 29.6479C2.00072 21.3919 4.59272 14.6719 9.77673 9.48792C14.9607 4.49591 21.5847 1.99991 29.6487 1.99991C37.7127 1.99991 44.4327 4.59192 49.8087 9.77591C54.9927 14.9599 57.5847 21.5839 57.5847 29.6479C57.5847 33.4879 57.1047 37.3279 56.1447 41.1679C55.1847 45.0079 53.0727 50.7679 49.8087 58.4479L33.1047 99.9199H4.59272L17.2647 54.1279ZM51.6569 59.2126C54.9231 51.5262 57.0855 45.6512 58.085 41.653C59.0835 37.6592 59.5847 33.6564 59.5847 29.6479C59.5847 21.1117 56.8213 13.96 51.2229 8.36169L51.2101 8.34885L51.197 8.33623C45.4168 2.76247 38.1852 -9.15527e-05 29.6487 -9.15527e-05C21.1351 -9.15527e-05 13.9922 2.65202 8.38944 8.04727L8.37585 8.06036L8.36252 8.0737C2.75478 13.6814 0.000724792 20.9345 0.000724792 29.6479C0.000724792 35.7297 1.42388 41.1067 4.34541 45.6977C6.95348 49.7961 10.4829 52.9703 14.8889 55.2144L1.9641 101.92H34.4553L51.6569 59.2126Z" fill="#E24325"/>
</svg>
