<svg width="21" height="12" viewBox="0 0 21 12" fill="none" xmlns="http://www.w3.org/2000/svg">
<path d="M20.8407 6.40496L14.7297 11.8743C14.5599 12.0097 14.3743 12.0357 14.1727 11.9524C13.9713 11.8689 13.8702 11.7179 13.8702 11.4991V7.99875H0.509247C0.360642 7.99875 0.23857 7.95196 0.143198 7.8582C0.0478814 7.7645 0 7.64464 0 7.49883V4.49865C0 4.3529 0.0476584 4.23304 0.143142 4.13945C0.238737 4.04575 0.360809 3.99895 0.509191 3.99895H13.8703V0.498684C13.8703 0.290046 13.9716 0.139096 14.1729 0.0456142C14.3747 -0.0380707 14.5603 -0.00643539 14.7301 0.139096L20.841 5.67123C20.9471 5.77533 21 5.90012 21 6.04609C21 6.18116 20.9468 6.30081 20.8407 6.40496Z" fill="white"/>
</svg>
